<?xml version="1.0" encoding="UTF-8" standalone="no"?>
<!DOCTYPE svg PUBLIC "-//W3C//DTD SVG 1.1//EN"
 "http://www.w3.org/Graphics/SVG/1.1/DTD/svg11.dtd">
<!-- Generated by graphviz version 5.0.0 (20220707.1540)
 -->
<!-- Title: dependencies Pages: 1 -->
<svg width="2727pt" height="174pt"
 viewBox="0.00 0.00 2727.00 173.80" xmlns="http://www.w3.org/2000/svg" xmlns:xlink="http://www.w3.org/1999/xlink">
<g id="graph0" class="graph" transform="scale(1 1) rotate(0) translate(4 169.8)">
<title>dependencies</title>
<polygon fill="white" stroke="transparent" points="-4,4 -4,-169.8 2723,-169.8 2723,4 -4,4"/>
<text text-anchor="middle" x="1359.5" y="-8.2" font-family="sans-serif" font-size="14.00">dependencies</text>
<g id="clust1" class="cluster">
<title>cluster_ClientModule</title>
<polygon fill="none" stroke="black" stroke-dasharray="1,5" points="8,-32.8 8,-157.8 2711,-157.8 2711,-32.8 8,-32.8"/>
</g>
<g id="clust2" class="cluster">
<title>cluster_ClientModule_declarations</title>
<polygon fill="none" stroke="black" points="178,-40.8 178,-92.8 2703,-92.8 2703,-40.8 178,-40.8"/>
</g>
<g id="clust19" class="cluster">
<title>cluster_ClientModule_imports</title>
<polygon fill="none" stroke="black" points="16,-40.8 16,-92.8 170,-92.8 170,-40.8 16,-40.8"/>
</g>
<!-- AsideComponent -->
<g id="node1" class="node">
<title>AsideComponent</title>
<polygon fill="#ffffb3" stroke="black" points="2694.99,-84.8 2581.01,-84.8 2581.01,-48.8 2694.99,-48.8 2694.99,-84.8"/>
<text text-anchor="middle" x="2638" y="-62.6" font-family="Times,serif" font-size="14.00">AsideComponent</text>
</g>
<!-- ClientModule -->
<g id="node17" class="node">
<title>ClientModule</title>
<polygon fill="#8dd3c7" stroke="black" points="1405.77,-149.8 1402.77,-153.8 1381.77,-153.8 1378.77,-149.8 1312.23,-149.8 1312.23,-113.8 1405.77,-113.8 1405.77,-149.8"/>
<text text-anchor="middle" x="1359" y="-127.6" font-family="Times,serif" font-size="14.00">ClientModule</text>
</g>
<!-- AsideComponent&#45;&gt;ClientModule -->
<g id="edge1" class="edge">
<title>AsideComponent&#45;&gt;ClientModule</title>
<path fill="none" stroke="black" d="M2638,-85.12C2638,-108.46 2638,-145.8 2638,-145.8 2638,-145.8 1416.04,-145.8 1416.04,-145.8"/>
<polygon fill="black" stroke="black" points="1416.04,-142.3 1406.04,-145.8 1416.04,-149.3 1416.04,-142.3"/>
</g>
<!-- BouttonQuantityComponent -->
<g id="node2" class="node">
<title>BouttonQuantityComponent</title>
<polygon fill="#ffffb3" stroke="black" points="2562.94,-84.8 2387.06,-84.8 2387.06,-48.8 2562.94,-48.8 2562.94,-84.8"/>
<text text-anchor="middle" x="2475" y="-62.6" font-family="Times,serif" font-size="14.00">BouttonQuantityComponent</text>
</g>
<!-- BouttonQuantityComponent&#45;&gt;ClientModule -->
<g id="edge2" class="edge">
<title>BouttonQuantityComponent&#45;&gt;ClientModule</title>
<path fill="none" stroke="black" d="M2475,-84.96C2475,-107.15 2475,-141.8 2475,-141.8 2475,-141.8 1415.89,-141.8 1415.89,-141.8"/>
<polygon fill="black" stroke="black" points="1415.89,-138.3 1405.89,-141.8 1415.89,-145.3 1415.89,-138.3"/>
</g>
<!-- CardComponent -->
<g id="node3" class="node">
<title>CardComponent</title>
<polygon fill="#ffffb3" stroke="black" points="2369.05,-84.8 2260.95,-84.8 2260.95,-48.8 2369.05,-48.8 2369.05,-84.8"/>
<text text-anchor="middle" x="2315" y="-62.6" font-family="Times,serif" font-size="14.00">CardComponent</text>
</g>
<!-- CardComponent&#45;&gt;ClientModule -->
<g id="edge3" class="edge">
<title>CardComponent&#45;&gt;ClientModule</title>
<path fill="none" stroke="black" d="M2315,-85.08C2315,-106.12 2315,-137.8 2315,-137.8 2315,-137.8 1416.08,-137.8 1416.08,-137.8"/>
<polygon fill="black" stroke="black" points="1416.08,-134.3 1406.08,-137.8 1416.08,-141.3 1416.08,-134.3"/>
</g>
<!-- CardTabsComponent -->
<g id="node4" class="node">
<title>CardTabsComponent</title>
<polygon fill="#ffffb3" stroke="black" points="2242.76,-84.8 2107.24,-84.8 2107.24,-48.8 2242.76,-48.8 2242.76,-84.8"/>
<text text-anchor="middle" x="2175" y="-62.6" font-family="Times,serif" font-size="14.00">CardTabsComponent</text>
</g>
<!-- CardTabsComponent&#45;&gt;ClientModule -->
<g id="edge4" class="edge">
<title>CardTabsComponent&#45;&gt;ClientModule</title>
<path fill="none" stroke="black" d="M2175,-85.11C2175,-104.95 2175,-133.8 2175,-133.8 2175,-133.8 1415.8,-133.8 1415.8,-133.8"/>
<polygon fill="black" stroke="black" points="1415.8,-130.3 1405.8,-133.8 1415.8,-137.3 1415.8,-130.3"/>
</g>
<!-- CartStatusComponentComponent -->
<g id="node5" class="node">
<title>CartStatusComponentComponent</title>
<polygon fill="#ffffb3" stroke="black" points="2089.49,-84.8 1884.51,-84.8 1884.51,-48.8 2089.49,-48.8 2089.49,-84.8"/>
<text text-anchor="middle" x="1987" y="-62.6" font-family="Times,serif" font-size="14.00">CartStatusComponentComponent</text>
</g>
<!-- CartStatusComponentComponent&#45;&gt;ClientModule -->
<g id="edge5" class="edge">
<title>CartStatusComponentComponent&#45;&gt;ClientModule</title>
<path fill="none" stroke="black" d="M1987,-85.02C1987,-103.63 1987,-129.8 1987,-129.8 1987,-129.8 1415.95,-129.8 1415.95,-129.8"/>
<polygon fill="black" stroke="black" points="1415.95,-126.3 1405.95,-129.8 1415.95,-133.3 1415.95,-126.3"/>
</g>
<!-- CatalogueComponent -->
<g id="node6" class="node">
<title>CatalogueComponent</title>
<polygon fill="#ffffb3" stroke="black" points="1866.09,-84.8 1727.91,-84.8 1727.91,-48.8 1866.09,-48.8 1866.09,-84.8"/>
<text text-anchor="middle" x="1797" y="-62.6" font-family="Times,serif" font-size="14.00">CatalogueComponent</text>
</g>
<!-- CatalogueComponent&#45;&gt;ClientModule -->
<g id="edge6" class="edge">
<title>CatalogueComponent&#45;&gt;ClientModule</title>
<path fill="none" stroke="black" d="M1797,-84.82C1797,-102.17 1797,-125.8 1797,-125.8 1797,-125.8 1415.87,-125.8 1415.87,-125.8"/>
<polygon fill="black" stroke="black" points="1415.87,-122.3 1405.87,-125.8 1415.87,-129.3 1415.87,-122.3"/>
</g>
<!-- CfooterComponent -->
<g id="node7" class="node">
<title>CfooterComponent</title>
<polygon fill="#ffffb3" stroke="black" points="1710.1,-84.8 1585.9,-84.8 1585.9,-48.8 1710.1,-48.8 1710.1,-84.8"/>
<text text-anchor="middle" x="1648" y="-62.6" font-family="Times,serif" font-size="14.00">CfooterComponent</text>
</g>
<!-- CfooterComponent&#45;&gt;ClientModule -->
<g id="edge7" class="edge">
<title>CfooterComponent&#45;&gt;ClientModule</title>
<path fill="none" stroke="black" d="M1648,-84.81C1648,-100.85 1648,-121.8 1648,-121.8 1648,-121.8 1416.08,-121.8 1416.08,-121.8"/>
<polygon fill="black" stroke="black" points="1416.08,-118.3 1406.08,-121.8 1416.08,-125.3 1416.08,-118.3"/>
</g>
<!-- CheaderComponent -->
<g id="node8" class="node">
<title>CheaderComponent</title>
<polygon fill="#ffffb3" stroke="black" points="1567.97,-84.8 1440.03,-84.8 1440.03,-48.8 1567.97,-48.8 1567.97,-84.8"/>
<text text-anchor="middle" x="1504" y="-62.6" font-family="Times,serif" font-size="14.00">CheaderComponent</text>
</g>
<!-- CheaderComponent&#45;&gt;ClientModule -->
<g id="edge8" class="edge">
<title>CheaderComponent&#45;&gt;ClientModule</title>
<path fill="none" stroke="black" d="M1504,-84.92C1504,-99.58 1504,-117.8 1504,-117.8 1504,-117.8 1416.08,-117.8 1416.08,-117.8"/>
<polygon fill="black" stroke="black" points="1416.08,-114.3 1406.08,-117.8 1416.08,-121.3 1416.08,-114.3"/>
</g>
<!-- ClayoutComponent -->
<g id="node9" class="node">
<title>ClayoutComponent</title>
<polygon fill="#ffffb3" stroke="black" points="1421.66,-84.8 1296.34,-84.8 1296.34,-48.8 1421.66,-48.8 1421.66,-84.8"/>
<text text-anchor="middle" x="1359" y="-62.6" font-family="Times,serif" font-size="14.00">ClayoutComponent</text>
</g>
<!-- ClayoutComponent&#45;&gt;ClientModule -->
<g id="edge9" class="edge">
<title>ClayoutComponent&#45;&gt;ClientModule</title>
<path fill="none" stroke="black" d="M1359,-84.91C1359,-84.91 1359,-103.79 1359,-103.79"/>
<polygon fill="black" stroke="black" points="1355.5,-103.79 1359,-113.79 1362.5,-103.79 1355.5,-103.79"/>
</g>
<!-- DetailsComponent -->
<g id="node10" class="node">
<title>DetailsComponent</title>
<polygon fill="#ffffb3" stroke="black" points="1278.49,-84.8 1157.51,-84.8 1157.51,-48.8 1278.49,-48.8 1278.49,-84.8"/>
<text text-anchor="middle" x="1218" y="-62.6" font-family="Times,serif" font-size="14.00">DetailsComponent</text>
</g>
<!-- DetailsComponent&#45;&gt;ClientModule -->
<g id="edge10" class="edge">
<title>DetailsComponent&#45;&gt;ClientModule</title>
<path fill="none" stroke="black" d="M1218,-84.92C1218,-99.58 1218,-117.8 1218,-117.8 1218,-117.8 1302.05,-117.8 1302.05,-117.8"/>
<polygon fill="black" stroke="black" points="1302.05,-121.3 1312.05,-117.8 1302.05,-114.3 1302.05,-121.3"/>
</g>
<!-- HomeComponent -->
<g id="node11" class="node">
<title>HomeComponent</title>
<polygon fill="#ffffb3" stroke="black" points="1139.55,-84.8 1024.45,-84.8 1024.45,-48.8 1139.55,-48.8 1139.55,-84.8"/>
<text text-anchor="middle" x="1082" y="-62.6" font-family="Times,serif" font-size="14.00">HomeComponent</text>
</g>
<!-- HomeComponent&#45;&gt;ClientModule -->
<g id="edge11" class="edge">
<title>HomeComponent&#45;&gt;ClientModule</title>
<path fill="none" stroke="black" d="M1082,-84.81C1082,-100.85 1082,-121.8 1082,-121.8 1082,-121.8 1302.01,-121.8 1302.01,-121.8"/>
<polygon fill="black" stroke="black" points="1302.01,-125.3 1312.01,-121.8 1302.01,-118.3 1302.01,-125.3"/>
</g>
<!-- ListePanierComponent -->
<g id="node12" class="node">
<title>ListePanierComponent</title>
<polygon fill="#ffffb3" stroke="black" points="1006.59,-84.8 861.41,-84.8 861.41,-48.8 1006.59,-48.8 1006.59,-84.8"/>
<text text-anchor="middle" x="934" y="-62.6" font-family="Times,serif" font-size="14.00">ListePanierComponent</text>
</g>
<!-- ListePanierComponent&#45;&gt;ClientModule -->
<g id="edge12" class="edge">
<title>ListePanierComponent&#45;&gt;ClientModule</title>
<path fill="none" stroke="black" d="M934,-84.82C934,-102.17 934,-125.8 934,-125.8 934,-125.8 1301.89,-125.8 1301.89,-125.8"/>
<polygon fill="black" stroke="black" points="1301.89,-129.3 1311.89,-125.8 1301.89,-122.3 1301.89,-129.3"/>
</g>
<!-- ListerComplementsComponent -->
<g id="node13" class="node">
<title>ListerComplementsComponent</title>
<polygon fill="#ffffb3" stroke="black" points="843.76,-84.8 652.24,-84.8 652.24,-48.8 843.76,-48.8 843.76,-84.8"/>
<text text-anchor="middle" x="748" y="-62.6" font-family="Times,serif" font-size="14.00">ListerComplementsComponent</text>
</g>
<!-- ListerComplementsComponent&#45;&gt;ClientModule -->
<g id="edge13" class="edge">
<title>ListerComplementsComponent&#45;&gt;ClientModule</title>
<path fill="none" stroke="black" d="M748,-85.02C748,-103.63 748,-129.8 748,-129.8 748,-129.8 1302.07,-129.8 1302.07,-129.8"/>
<polygon fill="black" stroke="black" points="1302.07,-133.3 1312.07,-129.8 1302.07,-126.3 1302.07,-133.3"/>
</g>
<!-- NotFoundComponent -->
<g id="node14" class="node">
<title>NotFoundComponent</title>
<polygon fill="#ffffb3" stroke="black" points="634.12,-84.8 495.88,-84.8 495.88,-48.8 634.12,-48.8 634.12,-84.8"/>
<text text-anchor="middle" x="565" y="-62.6" font-family="Times,serif" font-size="14.00">NotFoundComponent</text>
</g>
<!-- NotFoundComponent&#45;&gt;ClientModule -->
<g id="edge14" class="edge">
<title>NotFoundComponent&#45;&gt;ClientModule</title>
<path fill="none" stroke="black" d="M565,-85.11C565,-104.95 565,-133.8 565,-133.8 565,-133.8 1302,-133.8 1302,-133.8"/>
<polygon fill="black" stroke="black" points="1302,-137.3 1312,-133.8 1302,-130.3 1302,-137.3"/>
</g>
<!-- PanierComponent -->
<g id="node15" class="node">
<title>PanierComponent</title>
<polygon fill="#ffffb3" stroke="black" points="477.6,-84.8 360.4,-84.8 360.4,-48.8 477.6,-48.8 477.6,-84.8"/>
<text text-anchor="middle" x="419" y="-62.6" font-family="Times,serif" font-size="14.00">PanierComponent</text>
</g>
<!-- PanierComponent&#45;&gt;ClientModule -->
<g id="edge15" class="edge">
<title>PanierComponent&#45;&gt;ClientModule</title>
<path fill="none" stroke="black" d="M419,-85.08C419,-106.12 419,-137.8 419,-137.8 419,-137.8 1302.06,-137.8 1302.06,-137.8"/>
<polygon fill="black" stroke="black" points="1302.06,-141.3 1312.06,-137.8 1302.06,-134.3 1302.06,-141.3"/>
</g>
<!-- SectionListerComponent -->
<g id="node16" class="node">
<title>SectionListerComponent</title>
<polygon fill="#ffffb3" stroke="black" points="341.98,-84.8 186.02,-84.8 186.02,-48.8 341.98,-48.8 341.98,-84.8"/>
<text text-anchor="middle" x="264" y="-62.6" font-family="Times,serif" font-size="14.00">SectionListerComponent</text>
</g>
<!-- SectionListerComponent&#45;&gt;ClientModule -->
<g id="edge16" class="edge">
<title>SectionListerComponent&#45;&gt;ClientModule</title>
<path fill="none" stroke="black" d="M264,-84.96C264,-107.15 264,-141.8 264,-141.8 264,-141.8 1301.95,-141.8 1301.95,-141.8"/>
<polygon fill="black" stroke="black" points="1301.95,-145.3 1311.95,-141.8 1301.95,-138.3 1301.95,-145.3"/>
</g>
<!-- ClientRoutingModule -->
<g id="node18" class="node">
<title>ClientRoutingModule</title>
<polygon fill="#8dd3c7" stroke="black" points="162.39,-84.8 159.39,-88.8 138.39,-88.8 135.39,-84.8 23.61,-84.8 23.61,-48.8 162.39,-48.8 162.39,-84.8"/>
<text text-anchor="middle" x="93" y="-62.6" font-family="Times,serif" font-size="14.00">ClientRoutingModule</text>
</g>
<!-- ClientRoutingModule&#45;&gt;ClientModule -->
<g id="edge17" class="edge">
<title>ClientRoutingModule&#45;&gt;ClientModule</title>
<path fill="none" stroke="black" d="M93,-85.12C93,-108.46 93,-145.8 93,-145.8 93,-145.8 1302.06,-145.8 1302.06,-145.8"/>
<polygon fill="black" stroke="black" points="1302.06,-149.3 1312.06,-145.8 1302.06,-142.3 1302.06,-149.3"/>
</g>
</g>
</svg>
