<?xml version="1.0" encoding="UTF-8" standalone="no"?>
<!DOCTYPE svg PUBLIC "-//W3C//DTD SVG 1.1//EN"
 "http://www.w3.org/Graphics/SVG/1.1/DTD/svg11.dtd">
<!-- Generated by graphviz version 5.0.0 (20220707.1540)
 -->
<!-- Title: dependencies Pages: 1 -->
<svg width="748pt" height="174pt"
 viewBox="0.00 0.00 748.00 173.80" xmlns="http://www.w3.org/2000/svg" xmlns:xlink="http://www.w3.org/1999/xlink">
<g id="graph0" class="graph" transform="scale(1 1) rotate(0) translate(4 169.8)">
<title>dependencies</title>
<polygon fill="white" stroke="transparent" points="-4,4 -4,-169.8 744,-169.8 744,4 -4,4"/>
<text text-anchor="middle" x="370" y="-8.2" font-family="sans-serif" font-size="14.00">dependencies</text>
<g id="clust1" class="cluster">
<title>cluster_UserModule</title>
<polygon fill="none" stroke="black" stroke-dasharray="1,5" points="8,-32.8 8,-157.8 732,-157.8 732,-32.8 8,-32.8"/>
</g>
<g id="clust2" class="cluster">
<title>cluster_UserModule_declarations</title>
<polygon fill="none" stroke="black" points="172,-40.8 172,-92.8 724,-92.8 724,-40.8 172,-40.8"/>
</g>
<g id="clust7" class="cluster">
<title>cluster_UserModule_imports</title>
<polygon fill="none" stroke="black" points="16,-40.8 16,-92.8 164,-92.8 164,-40.8 16,-40.8"/>
</g>
<!-- UAddComponent -->
<g id="node1" class="node">
<title>UAddComponent</title>
<polygon fill="#ffffb3" stroke="black" points="715.55,-84.8 600.45,-84.8 600.45,-48.8 715.55,-48.8 715.55,-84.8"/>
<text text-anchor="middle" x="658" y="-62.6" font-family="Times,serif" font-size="14.00">UAddComponent</text>
</g>
<!-- UserModule -->
<g id="node5" class="node">
<title>UserModule</title>
<polygon fill="#8dd3c7" stroke="black" points="421.99,-149.8 418.99,-153.8 397.99,-153.8 394.99,-149.8 336.01,-149.8 336.01,-113.8 421.99,-113.8 421.99,-149.8"/>
<text text-anchor="middle" x="379" y="-127.6" font-family="Times,serif" font-size="14.00">UserModule</text>
</g>
<!-- UAddComponent&#45;&gt;UserModule -->
<g id="edge1" class="edge">
<title>UAddComponent&#45;&gt;UserModule</title>
<path fill="none" stroke="black" d="M658,-85.08C658,-106.12 658,-137.8 658,-137.8 658,-137.8 432.29,-137.8 432.29,-137.8"/>
<polygon fill="black" stroke="black" points="432.29,-134.3 422.29,-137.8 432.29,-141.3 432.29,-134.3"/>
</g>
<!-- UDeleteComponent -->
<g id="node2" class="node">
<title>UDeleteComponent</title>
<polygon fill="#ffffb3" stroke="black" points="581.97,-84.8 454.03,-84.8 454.03,-48.8 581.97,-48.8 581.97,-84.8"/>
<text text-anchor="middle" x="518" y="-62.6" font-family="Times,serif" font-size="14.00">UDeleteComponent</text>
</g>
<!-- UDeleteComponent&#45;&gt;UserModule -->
<g id="edge2" class="edge">
<title>UDeleteComponent&#45;&gt;UserModule</title>
<path fill="none" stroke="black" d="M518,-84.82C518,-102.17 518,-125.8 518,-125.8 518,-125.8 432.22,-125.8 432.22,-125.8"/>
<polygon fill="black" stroke="black" points="432.22,-122.3 422.22,-125.8 432.22,-129.3 432.22,-122.3"/>
</g>
<!-- UEditComponent -->
<g id="node3" class="node">
<title>UEditComponent</title>
<polygon fill="#ffffb3" stroke="black" points="436.27,-84.8 321.73,-84.8 321.73,-48.8 436.27,-48.8 436.27,-84.8"/>
<text text-anchor="middle" x="379" y="-62.6" font-family="Times,serif" font-size="14.00">UEditComponent</text>
</g>
<!-- UEditComponent&#45;&gt;UserModule -->
<g id="edge3" class="edge">
<title>UEditComponent&#45;&gt;UserModule</title>
<path fill="none" stroke="black" d="M379,-84.91C379,-84.91 379,-103.79 379,-103.79"/>
<polygon fill="black" stroke="black" points="375.5,-103.79 379,-113.79 382.5,-103.79 375.5,-103.79"/>
</g>
<!-- UIndexComponent -->
<g id="node4" class="node">
<title>UIndexComponent</title>
<polygon fill="#ffffb3" stroke="black" points="303.82,-84.8 180.18,-84.8 180.18,-48.8 303.82,-48.8 303.82,-84.8"/>
<text text-anchor="middle" x="242" y="-62.6" font-family="Times,serif" font-size="14.00">UIndexComponent</text>
</g>
<!-- UIndexComponent&#45;&gt;UserModule -->
<g id="edge4" class="edge">
<title>UIndexComponent&#45;&gt;UserModule</title>
<path fill="none" stroke="black" d="M242,-84.82C242,-102.17 242,-125.8 242,-125.8 242,-125.8 325.65,-125.8 325.65,-125.8"/>
<polygon fill="black" stroke="black" points="325.65,-129.3 335.65,-125.8 325.65,-122.3 325.65,-129.3"/>
</g>
<!-- UserRoutingModule -->
<g id="node6" class="node">
<title>UserRoutingModule</title>
<polygon fill="#8dd3c7" stroke="black" points="155.6,-84.8 152.6,-88.8 131.6,-88.8 128.6,-84.8 24.4,-84.8 24.4,-48.8 155.6,-48.8 155.6,-84.8"/>
<text text-anchor="middle" x="90" y="-62.6" font-family="Times,serif" font-size="14.00">UserRoutingModule</text>
</g>
<!-- UserRoutingModule&#45;&gt;UserModule -->
<g id="edge5" class="edge">
<title>UserRoutingModule&#45;&gt;UserModule</title>
<path fill="none" stroke="black" d="M90,-85.08C90,-106.12 90,-137.8 90,-137.8 90,-137.8 325.73,-137.8 325.73,-137.8"/>
<polygon fill="black" stroke="black" points="325.73,-141.3 335.73,-137.8 325.73,-134.3 325.73,-141.3"/>
</g>
</g>
</svg>
