<?xml version="1.0" encoding="UTF-8" standalone="no"?>
<!DOCTYPE svg PUBLIC "-//W3C//DTD SVG 1.1//EN"
 "http://www.w3.org/Graphics/SVG/1.1/DTD/svg11.dtd">
<!-- Generated by graphviz version 5.0.0 (20220707.1540)
 -->
<!-- Title: dependencies Pages: 1 -->
<svg width="756pt" height="174pt"
 viewBox="0.00 0.00 756.00 173.80" xmlns="http://www.w3.org/2000/svg" xmlns:xlink="http://www.w3.org/1999/xlink">
<g id="graph0" class="graph" transform="scale(1 1) rotate(0) translate(4 169.8)">
<title>dependencies</title>
<polygon fill="white" stroke="transparent" points="-4,4 -4,-169.8 752,-169.8 752,4 -4,4"/>
<text text-anchor="middle" x="374" y="-8.2" font-family="sans-serif" font-size="14.00">dependencies</text>
<g id="clust1" class="cluster">
<title>cluster_BurgerModule</title>
<polygon fill="none" stroke="black" stroke-dasharray="1,5" points="8,-32.8 8,-157.8 740,-157.8 740,-32.8 8,-32.8"/>
</g>
<g id="clust2" class="cluster">
<title>cluster_BurgerModule_declarations</title>
<polygon fill="none" stroke="black" points="184,-40.8 184,-92.8 732,-92.8 732,-40.8 184,-40.8"/>
</g>
<g id="clust7" class="cluster">
<title>cluster_BurgerModule_imports</title>
<polygon fill="none" stroke="black" points="16,-40.8 16,-92.8 176,-92.8 176,-40.8 16,-40.8"/>
</g>
<!-- BAddComponent -->
<g id="node1" class="node">
<title>BAddComponent</title>
<polygon fill="#ffffb3" stroke="black" points="724.28,-84.8 609.72,-84.8 609.72,-48.8 724.28,-48.8 724.28,-84.8"/>
<text text-anchor="middle" x="667" y="-62.6" font-family="Times,serif" font-size="14.00">BAddComponent</text>
</g>
<!-- BurgerModule -->
<g id="node5" class="node">
<title>BurgerModule</title>
<polygon fill="#8dd3c7" stroke="black" points="438.43,-149.8 435.43,-153.8 414.43,-153.8 411.43,-149.8 339.57,-149.8 339.57,-113.8 438.43,-113.8 438.43,-149.8"/>
<text text-anchor="middle" x="389" y="-127.6" font-family="Times,serif" font-size="14.00">BurgerModule</text>
</g>
<!-- BAddComponent&#45;&gt;BurgerModule -->
<g id="edge1" class="edge">
<title>BAddComponent&#45;&gt;BurgerModule</title>
<path fill="none" stroke="black" d="M667,-85.08C667,-106.12 667,-137.8 667,-137.8 667,-137.8 448.38,-137.8 448.38,-137.8"/>
<polygon fill="black" stroke="black" points="448.38,-134.3 438.38,-137.8 448.38,-141.3 448.38,-134.3"/>
</g>
<!-- BDeleteComponent -->
<g id="node2" class="node">
<title>BDeleteComponent</title>
<polygon fill="#ffffb3" stroke="black" points="591.7,-84.8 464.3,-84.8 464.3,-48.8 591.7,-48.8 591.7,-84.8"/>
<text text-anchor="middle" x="528" y="-62.6" font-family="Times,serif" font-size="14.00">BDeleteComponent</text>
</g>
<!-- BDeleteComponent&#45;&gt;BurgerModule -->
<g id="edge2" class="edge">
<title>BDeleteComponent&#45;&gt;BurgerModule</title>
<path fill="none" stroke="black" d="M528,-84.82C528,-102.17 528,-125.8 528,-125.8 528,-125.8 448.4,-125.8 448.4,-125.8"/>
<polygon fill="black" stroke="black" points="448.4,-122.3 438.4,-125.8 448.4,-129.3 448.4,-122.3"/>
</g>
<!-- BEditComponent -->
<g id="node3" class="node">
<title>BEditComponent</title>
<polygon fill="#ffffb3" stroke="black" points="446,-84.8 332,-84.8 332,-48.8 446,-48.8 446,-84.8"/>
<text text-anchor="middle" x="389" y="-62.6" font-family="Times,serif" font-size="14.00">BEditComponent</text>
</g>
<!-- BEditComponent&#45;&gt;BurgerModule -->
<g id="edge3" class="edge">
<title>BEditComponent&#45;&gt;BurgerModule</title>
<path fill="none" stroke="black" d="M389,-84.91C389,-84.91 389,-103.79 389,-103.79"/>
<polygon fill="black" stroke="black" points="385.5,-103.79 389,-113.79 392.5,-103.79 385.5,-103.79"/>
</g>
<!-- BIndexComponent -->
<g id="node4" class="node">
<title>BIndexComponent</title>
<polygon fill="#ffffb3" stroke="black" points="314.05,-84.8 191.95,-84.8 191.95,-48.8 314.05,-48.8 314.05,-84.8"/>
<text text-anchor="middle" x="253" y="-62.6" font-family="Times,serif" font-size="14.00">BIndexComponent</text>
</g>
<!-- BIndexComponent&#45;&gt;BurgerModule -->
<g id="edge4" class="edge">
<title>BIndexComponent&#45;&gt;BurgerModule</title>
<path fill="none" stroke="black" d="M253,-84.82C253,-102.17 253,-125.8 253,-125.8 253,-125.8 329.52,-125.8 329.52,-125.8"/>
<polygon fill="black" stroke="black" points="329.52,-129.3 339.52,-125.8 329.52,-122.3 329.52,-129.3"/>
</g>
<!-- BurgerRoutingModule -->
<g id="node6" class="node">
<title>BurgerRoutingModule</title>
<polygon fill="#8dd3c7" stroke="black" points="167.55,-84.8 164.55,-88.8 143.55,-88.8 140.55,-84.8 24.45,-84.8 24.45,-48.8 167.55,-48.8 167.55,-84.8"/>
<text text-anchor="middle" x="96" y="-62.6" font-family="Times,serif" font-size="14.00">BurgerRoutingModule</text>
</g>
<!-- BurgerRoutingModule&#45;&gt;BurgerModule -->
<g id="edge5" class="edge">
<title>BurgerRoutingModule&#45;&gt;BurgerModule</title>
<path fill="none" stroke="black" d="M96,-85.08C96,-106.12 96,-137.8 96,-137.8 96,-137.8 329.63,-137.8 329.63,-137.8"/>
<polygon fill="black" stroke="black" points="329.63,-141.3 339.63,-137.8 329.63,-134.3 329.63,-141.3"/>
</g>
</g>
</svg>
