<?xml version="1.0" encoding="UTF-8" standalone="no"?>
<!DOCTYPE svg PUBLIC "-//W3C//DTD SVG 1.1//EN"
 "http://www.w3.org/Graphics/SVG/1.1/DTD/svg11.dtd">
<!-- Generated by graphviz version 5.0.0 (20220707.1540)
 -->
<!-- Title: dependencies Pages: 1 -->
<svg width="618pt" height="247pt"
 viewBox="0.00 0.00 618.00 246.80" xmlns="http://www.w3.org/2000/svg" xmlns:xlink="http://www.w3.org/1999/xlink">
<g id="graph0" class="graph" transform="scale(1 1) rotate(0) translate(4 242.8)">
<title>dependencies</title>
<polygon fill="white" stroke="transparent" points="-4,4 -4,-242.8 614,-242.8 614,4 -4,4"/>
<text text-anchor="middle" x="305" y="-8.2" font-family="sans-serif" font-size="14.00">dependencies</text>
<g id="clust1" class="cluster">
<title>cluster_AppModule</title>
<polygon fill="none" stroke="black" stroke-dasharray="1,5" points="8,-32.8 8,-230.8 602,-230.8 602,-32.8 8,-32.8"/>
</g>
<g id="clust7" class="cluster">
<title>cluster_AppModule_bootstrap</title>
<polygon fill="none" stroke="black" points="264,-170.8 264,-222.8 388,-222.8 388,-170.8 264,-170.8"/>
</g>
<g id="clust5" class="cluster">
<title>cluster_AppModule_imports</title>
<polygon fill="none" stroke="black" points="332,-40.8 332,-92.8 594,-92.8 594,-40.8 332,-40.8"/>
</g>
<g id="clust2" class="cluster">
<title>cluster_AppModule_declarations</title>
<polygon fill="none" stroke="black" points="16,-40.8 16,-92.8 324,-92.8 324,-40.8 16,-40.8"/>
</g>
<!-- AppComponent -->
<g id="node1" class="node">
<title>AppComponent</title>
<polygon fill="#ffffb3" stroke="black" points="315.94,-84.8 210.06,-84.8 210.06,-48.8 315.94,-48.8 315.94,-84.8"/>
<text text-anchor="middle" x="263" y="-62.6" font-family="Times,serif" font-size="14.00">AppComponent</text>
</g>
<!-- AppModule -->
<g id="node3" class="node">
<title>AppModule</title>
<polygon fill="#8dd3c7" stroke="black" points="367.66,-149.8 364.66,-153.8 343.66,-153.8 340.66,-149.8 284.34,-149.8 284.34,-113.8 367.66,-113.8 367.66,-149.8"/>
<text text-anchor="middle" x="326" y="-127.6" font-family="Times,serif" font-size="14.00">AppModule</text>
</g>
<!-- AppComponent&#45;&gt;AppModule -->
<g id="edge1" class="edge">
<title>AppComponent&#45;&gt;AppModule</title>
<path fill="none" stroke="black" d="M299.94,-84.91C299.94,-84.91 299.94,-103.79 299.94,-103.79"/>
<polygon fill="black" stroke="black" points="296.44,-103.79 299.94,-113.79 303.44,-103.79 296.44,-103.79"/>
</g>
<!-- NotFoundErrorComponent -->
<g id="node2" class="node">
<title>NotFoundErrorComponent</title>
<polygon fill="#ffffb3" stroke="black" points="191.66,-84.8 24.34,-84.8 24.34,-48.8 191.66,-48.8 191.66,-84.8"/>
<text text-anchor="middle" x="108" y="-62.6" font-family="Times,serif" font-size="14.00">NotFoundErrorComponent</text>
</g>
<!-- NotFoundErrorComponent&#45;&gt;AppModule -->
<g id="edge2" class="edge">
<title>NotFoundErrorComponent&#45;&gt;AppModule</title>
<path fill="none" stroke="black" d="M108,-84.91C108,-104.14 108,-131.8 108,-131.8 108,-131.8 274.23,-131.8 274.23,-131.8"/>
<polygon fill="black" stroke="black" points="274.23,-135.3 284.23,-131.8 274.23,-128.3 274.23,-135.3"/>
</g>
<!-- AppComponent  -->
<g id="node6" class="node">
<title>AppComponent </title>
<polygon fill="#80b1d3" stroke="black" points="380.44,-214.8 271.56,-214.8 271.56,-178.8 380.44,-178.8 380.44,-214.8"/>
<text text-anchor="middle" x="326" y="-192.6" font-family="Times,serif" font-size="14.00">AppComponent </text>
</g>
<!-- AppModule&#45;&gt;AppComponent  -->
<g id="edge5" class="edge">
<title>AppModule&#45;&gt;AppComponent </title>
<path fill="none" stroke="black" stroke-dasharray="1,5" d="M326,-149.91C326,-149.91 326,-168.79 326,-168.79"/>
<polygon fill="black" stroke="black" points="322.5,-168.79 326,-178.79 329.5,-168.79 322.5,-168.79"/>
</g>
<!-- AppRoutingModule -->
<g id="node4" class="node">
<title>AppRoutingModule</title>
<polygon fill="#8dd3c7" stroke="black" points="586.28,-84.8 583.28,-88.8 562.28,-88.8 559.28,-84.8 457.72,-84.8 457.72,-48.8 586.28,-48.8 586.28,-84.8"/>
<text text-anchor="middle" x="522" y="-62.6" font-family="Times,serif" font-size="14.00">AppRoutingModule</text>
</g>
<!-- AppRoutingModule&#45;&gt;AppModule -->
<g id="edge3" class="edge">
<title>AppRoutingModule&#45;&gt;AppModule</title>
<path fill="none" stroke="black" d="M522,-84.91C522,-104.14 522,-131.8 522,-131.8 522,-131.8 378.05,-131.8 378.05,-131.8"/>
<polygon fill="black" stroke="black" points="378.05,-128.3 368.05,-131.8 378.05,-135.3 378.05,-128.3"/>
</g>
<!-- LayoutModule -->
<g id="node5" class="node">
<title>LayoutModule</title>
<polygon fill="#8dd3c7" stroke="black" points="439.71,-84.8 436.71,-88.8 415.71,-88.8 412.71,-84.8 340.29,-84.8 340.29,-48.8 439.71,-48.8 439.71,-84.8"/>
<text text-anchor="middle" x="390" y="-62.6" font-family="Times,serif" font-size="14.00">LayoutModule</text>
</g>
<!-- LayoutModule&#45;&gt;AppModule -->
<g id="edge4" class="edge">
<title>LayoutModule&#45;&gt;AppModule</title>
<path fill="none" stroke="black" d="M354.11,-84.91C354.11,-84.91 354.11,-103.79 354.11,-103.79"/>
<polygon fill="black" stroke="black" points="350.61,-103.79 354.11,-113.79 357.61,-103.79 350.61,-103.79"/>
</g>
</g>
</svg>
